# Blender 3.6.1
# www.blender.org
o Cube
v 1.000000 1.000000 1.000000
v 1.000000 0.700000 1.000000
v 1.000000 1.000000 0.700000
v 1.000000 0.700000 0.700000
v 0.700000 1.000000 1.000000
v 0.700000 0.700000 1.000000
v 0.700000 1.000000 0.700000
v 0.700000 0.700000 0.700000
v -1.000000 1.000000 1.000000
v -1.000000 0.700000 1.000000
v -1.000000 1.000000 0.700000
v -1.000000 0.700000 0.700000
v -0.700000 1.000000 1.000000
v -0.700000 0.700000 1.000000
v -0.700000 1.000000 0.700000
v -0.700000 0.700000 0.700000
v 1.000000 1.000000 -1.000000
v 1.000000 0.700000 -1.000000
v 1.000000 1.000000 -0.700000
v 1.000000 0.700000 -0.700000
v 0.700000 1.000000 -1.000000
v 0.700000 0.700000 -1.000000
v 0.700000 1.000000 -0.700000
v 0.700000 0.700000 -0.700000
v -1.000000 1.000000 -1.000000
v -1.000000 0.700000 -1.000000
v -1.000000 1.000000 -0.700000
v -1.000000 0.700000 -0.700000
v -0.700000 1.000000 -1.000000
v -0.700000 0.700000 -1.000000
v -0.700000 1.000000 -0.700000
v -0.700000 0.700000 -0.700000
v 1.000000 -1.000000 1.000000
v 1.000000 -0.700000 1.000000
v 1.000000 -1.000000 0.700000
v 1.000000 -0.700000 0.700000
v 0.700000 -1.000000 1.000000
v 0.700000 -0.700000 1.000000
v 0.700000 -1.000000 0.700000
v 0.700000 -0.700000 0.700000
v -1.000000 -1.000000 1.000000
v -1.000000 -0.700000 1.000000
v -1.000000 -1.000000 0.700000
v -1.000000 -0.700000 0.700000
v -0.700000 -1.000000 1.000000
v -0.700000 -0.700000 1.000000
v -0.700000 -1.000000 0.700000
v -0.700000 -0.700000 0.700000
v 1.000000 -1.000000 -1.000000
v 1.000000 -0.700000 -1.000000
v 1.000000 -1.000000 -0.700000
v 1.000000 -0.700000 -0.700000
v 0.700000 -1.000000 -1.000000
v 0.700000 -0.700000 -1.000000
v 0.700000 -1.000000 -0.700000
v 0.700000 -0.700000 -0.700000
v -1.000000 -1.000000 -1.000000
v -1.000000 -0.700000 -1.000000
v -1.000000 -1.000000 -0.700000
v -1.000000 -0.700000 -0.700000
v -0.700000 -1.000000 -1.000000
v -0.700000 -0.700000 -1.000000
v -0.700000 -1.000000 -0.700000
v -0.700000 -0.700000 -0.700000
vn 1.0000 -0.0000 -0.0000
vn -0.0000 -0.0000 -1.0000
vn -0.0000 -1.0000 -0.0000
vn -1.0000 -0.0000 -0.0000
vn -0.0000 1.0000 -0.0000
vn -0.0000 -0.0000 1.0000
vt 0.645161 0.274194
vt 0.596774 0.322581
vt 0.596774 0.274194
vt 0.274194 0.322581
vt 0.048387 0.370968
vt 0.048387 0.322581
vt 0.370968 0.322581
vt 0.370968 0.645161
vt 0.419355 0.870968
vt 0.370968 0.870968
vt 0.596774 0.048387
vt 0.645161 0.548387
vt 0.693548 0.774194
vt 0.645161 0.774194
vt 0.274194 0.048387
vt 0.322581 0.000000
vt 0.322581 0.048387
vt 0.645161 0.645161
vt 0.596774 0.596774
vt 0.645161 0.596774
vt 0.048387 0.000000
vt 0.048387 0.048387
vt 0.935484 0.774194
vt 0.983871 0.548387
vt 0.983871 0.774194
vt 0.000000 0.596774
vt 0.048387 0.596774
vt 0.048387 0.274194
vt 0.000000 0.048387
vt 0.790323 0.322581
vt 0.741936 0.548387
vt 0.741936 0.322581
vt 0.693548 0.322581
vt 0.645161 0.548387
vt 0.645161 0.322581
vt 0.887097 0.322581
vt 0.935484 0.548387
vt 0.887097 0.548387
vt 0.000000 0.693548
vt 0.048387 0.645161
vt 0.048387 0.693548
vt 0.596774 0.370968
vt 0.048387 0.919355
vt 0.419355 0.645161
vt 0.467742 0.870968
vt 0.274193 0.645161
vt 0.564516 0.645161
vt 0.612903 0.870968
vt 0.564516 0.870968
vt 0.000000 0.000000
vt 0.370968 0.596774
vt 0.322581 0.645161
vt 0.322581 0.596774
vt 0.693548 0.048387
vt 0.919355 -0.000000
vt 0.919355 0.048387
vt 0.887097 0.548387
vt 0.838710 0.322581
vt 0.887097 0.322581
vt 0.370968 0.870968
vt 0.322581 0.645161
vt 0.370968 0.645161
vt 0.596774 0.000000
vt 0.645161 0.048387
vt 0.274194 0.596774
vt 0.048387 0.645161
vt 0.370968 0.048387
vt 0.693548 0.548387
vt 0.741936 0.774194
vt 0.693548 0.774194
vt 0.322581 0.322581
vt 0.274194 0.274194
vt 0.322581 0.274194
vt 0.000000 0.322581
vt 0.048387 0.322581
vt 0.935484 0.774194
vt 0.887097 0.548387
vt 0.370968 0.322581
vt 0.370968 0.370968
vt 0.516129 0.870968
vt 0.467742 0.645161
vt 0.516129 0.645161
vt 0.741936 1.000000
vt 0.322581 0.693548
vt 0.274194 0.693548
vt 0.370968 0.645161
vt 0.322581 0.919355
vt 0.838710 0.548387
vt 0.887097 0.774194
vt 0.838710 0.774194
vt 0.000000 0.322581
vt 0.000000 0.274194
vt 0.000000 0.645161
vt 0.741935 0.322581
vt 0.693548 0.548387
vt 0.693548 0.322581
vt 0.322581 0.274194
vt 0.370968 0.274194
vt 0.838710 0.548387
vt 0.838710 0.322581
vt 0.322581 0.048387
vt 0.967742 -0.000000
vt 0.645161 0.322581
vt 0.645161 0.370968
vt 0.967742 0.274194
vt 0.919355 0.274194
vt 0.790323 1.000000
vt 0.274194 0.370968
vt 0.322581 0.596774
vt 0.693549 0.322581
vt 0.919355 0.322581
vt 0.564516 0.870968
vt 0.516129 0.870968
vt 0.935484 0.322581
vt 0.983871 0.548387
vt 0.935484 0.548387
vt 0.048387 0.967742
vt 0.000000 0.919355
vt 0.838710 0.774194
vt 0.790323 0.548387
vt 0.274194 0.919355
vt 0.967742 0.322581
vt 0.322581 0.322581
vt 0.322581 0.370968
vt 0.790323 0.548387
vt 0.370968 0.000000
vt 0.645161 -0.000000
vt 0.693548 -0.000000
vt 0.322581 0.322581
vt 0.645161 0.274193
vt 0.693549 0.274193
vt 0.645161 1.000000
vt 0.693548 1.000000
vt 0.838710 1.000000
vt 0.790323 0.774194
vt 0.838710 0.774194
vt 0.274194 0.967742
vt 0.645161 0.322581
vt 0.322581 0.645161
vt 0.274194 0.645161
vt 0.645161 0.322581
vt 0.419355 0.645161
vt 0.693548 0.548387
vt 0.274194 0.000000
vt 0.596774 0.645161
vt 0.935484 0.548387
vt 0.000000 0.370968
vt 0.790323 0.548387
vt 0.693548 0.548387
vt 0.935484 0.322581
vt 0.000000 0.645161
vt 0.467742 0.645161
vt 0.612903 0.645161
vt 0.838710 0.548387
vt 0.322581 0.870968
vt 0.645161 0.000000
vt 0.887097 0.774194
vt 0.596774 0.322581
vt 0.467742 0.870968
vt 0.693548 1.000000
vt 0.322581 0.645161
vt 0.741935 0.548387
vt 0.322581 0.322581
vt 0.967742 0.048387
vt 0.790323 0.774194
vt 0.322581 0.370968
vt 0.564516 0.645161
vt 0.983871 0.322581
vt 0.000000 0.967742
vt 0.322581 0.000000
vt 0.645161 0.048387
vt 0.645161 0.774194
vt 0.790323 1.000000
vt 0.322581 0.967742
s 0
f 3/1/1 2/2/1 4/3/1
f 50/4/2 22/5/2 18/6/2
f 34/7/1 4/3/1 2/2/1
f 24/8/3 4/9/3 8/10/3
f 20/11/1 3/1/1 4/3/1
f 40/12/4 6/13/4 8/14/4
f 7/15/5 1/16/5 3/17/5
f 1/18/6 6/19/6 2/20/6
f 13/21/5 7/15/5 15/22/5
f 16/23/3 6/24/3 14/25/3
f 29/26/2 22/5/2 30/27/2
f 31/28/5 11/29/5 15/22/5
f 24/30/4 7/31/4 23/32/4
f 40/33/2 4/34/2 36/35/2
f 16/36/2 7/37/2 8/38/2
f 10/39/4 11/40/4 12/41/4
f 38/42/6 2/20/6 6/19/6
f 44/43/4 10/39/4 12/41/4
f 28/44/3 16/45/3 12/9/3
f 27/46/4 12/41/4 11/40/4
f 46/47/1 16/48/1 14/49/1
f 9/50/5 15/22/5 11/29/5
f 14/51/6 9/52/6 10/53/6
f 55/54/3 35/55/3 39/56/3
f 15/57/1 32/58/1 31/59/1
f 12/60/2 48/61/2 44/62/2
f 18/63/1 19/64/1 20/11/1
f 62/65/2 26/66/2 30/27/2
f 52/67/1 18/63/1 20/11/1
f 54/68/4 24/69/4 22/70/4
f 17/71/5 23/72/5 19/73/5
f 22/5/2 17/74/2 18/6/2
f 23/72/5 29/75/5 31/28/5
f 22/76/3 32/77/3 30/37/3
f 45/78/6 38/42/6 46/79/6
f 20/80/6 56/81/6 52/82/6
f 31/83/6 24/70/6 23/69/6
f 27/46/4 26/84/4 28/85/4
f 6/19/6 13/86/6 14/51/6
f 58/87/4 28/85/4 26/84/4
f 64/88/1 30/89/1 32/90/1
f 31/28/5 25/91/5 27/92/5
f 25/93/2 30/27/2 26/66/2
f 64/94/6 28/95/6 60/96/6
f 34/7/1 35/97/1 36/98/1
f 52/99/5 40/30/5 36/100/5
f 51/101/1 36/98/1 35/97/1
f 33/102/3 39/56/3 35/55/3
f 38/42/6 33/103/6 34/104/6
f 39/56/3 45/105/3 47/106/3
f 38/69/5 48/107/5 46/83/5
f 54/108/2 61/109/2 62/65/2
f 59/110/3 47/106/3 43/111/3
f 39/82/4 56/112/4 55/113/4
f 47/114/2 40/115/2 39/116/2
f 43/117/4 42/118/4 44/43/4
f 64/119/5 44/120/5 48/99/5
f 60/121/4 43/117/4 44/43/4
f 47/106/3 41/122/3 43/111/3
f 41/123/6 46/79/6 42/124/6
f 64/125/1 47/69/1 63/31/1
f 51/101/1 50/126/1 52/67/1
f 55/54/3 49/127/3 51/128/3
f 49/129/2 54/108/2 50/4/2
f 61/130/3 55/54/3 63/131/3
f 64/132/5 54/13/5 62/133/5
f 19/73/5 7/15/5 3/17/5
f 64/134/6 55/135/6 56/136/6
f 58/87/4 59/137/4 60/121/4
f 57/138/3 63/131/3 59/110/3
f 62/65/2 57/139/2 58/140/2
f 42/124/6 14/51/6 10/53/6
f 3/1/1 1/141/1 2/2/1
f 50/4/2 54/108/2 22/5/2
f 34/7/1 36/98/1 4/3/1
f 24/8/3 20/142/3 4/9/3
f 20/11/1 19/64/1 3/1/1
f 40/12/4 38/143/4 6/13/4
f 7/15/5 5/144/5 1/16/5
f 1/18/6 5/145/6 6/19/6
f 13/21/5 5/144/5 7/15/5
f 16/23/3 8/146/3 6/24/3
f 29/26/2 21/147/2 22/5/2
f 31/28/5 27/92/5 11/29/5
f 24/30/4 8/148/4 7/31/4
f 40/33/2 8/149/2 4/34/2
f 16/36/2 15/150/2 7/37/2
f 10/39/4 9/151/4 11/40/4
f 38/42/6 34/104/6 2/20/6
f 44/43/4 42/118/4 10/39/4
f 28/44/3 32/152/3 16/45/3
f 27/46/4 28/85/4 12/41/4
f 46/47/1 48/153/1 16/48/1
f 9/50/5 13/21/5 15/22/5
f 14/51/6 13/86/6 9/52/6
f 55/54/3 51/128/3 35/55/3
f 15/57/1 16/154/1 32/58/1
f 12/60/2 16/155/2 48/61/2
f 18/63/1 17/156/1 19/64/1
f 62/65/2 58/140/2 26/66/2
f 52/67/1 50/126/1 18/63/1
f 54/68/4 56/31/4 24/69/4
f 17/71/5 21/4/5 23/72/5
f 22/5/2 21/147/2 17/74/2
f 23/72/5 21/4/5 29/75/5
f 22/76/3 24/157/3 32/77/3
f 45/78/6 37/158/6 38/42/6
f 20/80/6 24/159/6 56/81/6
f 31/83/6 32/160/6 24/70/6
f 27/46/4 25/161/4 26/84/4
f 6/19/6 5/145/6 13/86/6
f 58/87/4 60/121/4 28/85/4
f 64/88/1 62/77/1 30/89/1
f 31/28/5 29/75/5 25/91/5
f 25/93/2 29/26/2 30/27/2
f 64/94/6 32/162/6 28/95/6
f 34/7/1 33/163/1 35/97/1
f 52/99/5 56/148/5 40/30/5
f 51/101/1 52/67/1 36/98/1
f 33/102/3 37/164/3 39/56/3
f 38/42/6 37/158/6 33/103/6
f 39/56/3 37/164/3 45/105/3
f 38/69/5 40/165/5 48/107/5
f 54/108/2 53/166/2 61/109/2
f 59/110/3 63/131/3 47/106/3
f 39/82/4 40/167/4 56/112/4
f 47/114/2 48/168/2 40/115/2
f 43/117/4 41/169/4 42/118/4
f 64/119/5 60/165/5 44/120/5
f 60/121/4 59/137/4 43/117/4
f 47/106/3 45/105/3 41/122/3
f 41/123/6 45/78/6 46/79/6
f 64/125/1 48/165/1 47/69/1
f 51/101/1 49/170/1 50/126/1
f 55/54/3 53/171/3 49/127/3
f 49/129/2 53/166/2 54/108/2
f 61/130/3 53/171/3 55/54/3
f 64/132/5 56/172/5 54/13/5
f 19/73/5 23/72/5 7/15/5
f 64/134/6 63/173/6 55/135/6
f 58/87/4 57/174/4 59/137/4
f 57/138/3 61/130/3 63/131/3
f 62/65/2 61/109/2 57/139/2
f 42/124/6 46/79/6 14/51/6
